<?xml version="1.0" encoding="utf-8"?>
<svg version="1.1" id="Layer_1" xmlns="http://www.w3.org/2000/svg" xmlns:xlink="http://www.w3.org/1999/xlink" x="0px" y="0px"
	 viewBox="0 0 1421.3 143" style="enable-background:new 0 0 1421.3 143;" xml:space="preserve">
<style type="text/css">
	.st0{fill-rule:evenodd;clip-rule:evenodd;}
</style>
<g id="Artboard_1">
	<path id="Makenzie" class="st0" d="M30.2-0.4H9v143.6h19.2l-2-94l14.4,68h14.8l14.4-68l-2,94H87V-0.4H65.8L48,84L30.2-0.4z
		 M179.2,90.6h22v52.6h19.2v-119c0-16.4-7.7-24.6-23-24.6H183c-15.3,0-23,8.2-23,24.6v119h19.2V90.6L179.2,90.6z M179.2,73.2V25.4
		c0-5.6,2.8-8.4,8.4-8.4h5.2c5.6,0,8.4,2.8,8.4,8.4v47.8H179.2L179.2,73.2z M312.6-0.4h-19.2v143.6h19.2V-0.4z M331,71l20.2-71.4
		h-17.6l-20,72.2V73l24,70.2h19.2L331,71z M471.4,143.2v-17.4H443V78h25.2V60.6H443V17h28.4V-0.4h-47.6v143.6L471.4,143.2
		L471.4,143.2z M560.4-0.4h-19.2v143.6h19.2v-94l20.6,65.4v28.6h19.2V-0.4H581V69L560.4-0.4z M717.8,7.8l-4-8.2h-43.4v17.6h27
		l-30.2,119.2l1.4,6.8h53.2v-17.4h-32.4L717.8,7.8z M808,143.2V-0.4h-19.2v143.6H808z M929.6,143.2v-17.4h-28.4V78h25.2V60.6h-25.2
		V17h28.4V-0.4H882v143.6L929.6,143.2L929.6,143.2z"/>
</g>
<g>
	<path d="M1131.4,143.3h-45.8v-144h19.3v126.6h26.5V143.3z"/>
	<path d="M1182.6,143.3v-144h19.3v144H1182.6z"/>
	<path d="M1290.8,16.8v126.6h-19.3V16.8h-18.5V-0.7h56.2v17.5H1290.8z"/>
	<path d="M1360.4,143.3v-144h47.8v17.5h-28.5v43.7h25.3v17.4h-25.3v47.9h28.5v17.5H1360.4z"/>
</g>
</svg>
